<svg viewBox="0 0 72 72" fill="#F70000" xmlns="http://www.w3.org/2000/svg"><g><path d="M44.6384 29.3918V32.5364C44.6384 32.7168 44.7802 32.863 44.955 32.863C45.1299 32.863 45.2716 32.7168 45.2716 32.5364V29.3918C45.2716 29.2114 45.1299 29.0651 44.955 29.0651C44.7802 29.0651 44.6384 29.2114 44.6384 29.3918Z" fill="black"/><path d="M27.6863 29.2516V32.3962C27.6863 32.5766 27.828 32.7228 28.0029 32.7228C28.1777 32.7228 28.3195 32.5766 28.3195 32.3962V29.2516C28.3195 29.0712 28.1777 28.9249 28.0029 28.9249C27.828 28.9249 27.6863 29.0712 27.6863 29.2516Z" fill="black"/><path d="M44.6384 54.6718V57.8165C44.6384 57.9968 44.7802 58.1431 44.955 58.1431C45.1299 58.1431 45.2716 57.9968 45.2716 57.8165V54.6718C45.2716 54.4915 45.1299 54.3452 44.955 54.3452C44.7802 54.3452 44.6384 54.4915 44.6384 54.6718Z" fill="black"/><path d="M27.6863 54.5316V57.6763C27.6863 57.8566 27.828 58.0029 28.0029 58.0029C28.1777 58.0029 28.3195 57.8566 28.3195 57.6763V54.5316C28.3195 54.3513 28.1777 54.205 28.0029 54.205C27.828 54.205 27.6863 54.3513 27.6863 54.5316Z" fill="black"/><path d="M44.002 9.79207V10.093H45.4789V9.79207H44.002Z" fill="#2A2A2A"/><path d="M27.7576 9.79207V10.093H29.2361V9.79207H27.7576Z" fill="#2A2A2A"/><path d="M30.4496 20.8881V25.7683H42.4837V20.8881H30.4496Z" fill="#2A2A2A"/><g filter="url(#filter0_d)"><path d="M27.9581 22.5074L27.9581 64.8974H44.9799V22.5074H27.9581Z" fill="var(--color-lnui-green-100)"/></g><g filter="url(#filter1_d)"><path d="M36.3357 8.0069H36.4699C38.8517 8.00725 41.2287 8.22642 43.5727 8.66182C43.6571 8.66069 43.7409 8.67675 43.8192 8.70907C43.8976 8.74139 43.969 8.78935 44.0293 8.85019C44.0897 8.91102 44.1378 8.98355 44.171 9.06361C44.2041 9.14367 44.2216 9.22969 44.2225 9.31674V21.2352C44.2216 21.3223 44.2041 21.4084 44.171 21.4886C44.1379 21.5687 44.0898 21.6414 44.0294 21.7023C43.9691 21.7633 43.8977 21.8114 43.8193 21.8439C43.741 21.8764 43.6572 21.8927 43.5727 21.8918L29.3705 21.8918C29.286 21.8927 29.2022 21.8764 29.1238 21.8439C29.0455 21.8114 28.9741 21.7633 28.9138 21.7023C28.8534 21.6414 28.8053 21.5687 28.7722 21.4886C28.7391 21.4084 28.7216 21.3223 28.7207 21.2352V9.30648C28.7255 9.1326 28.7962 8.96762 28.9178 8.84705C29.0393 8.72647 29.2019 8.65996 29.3705 8.66182C31.6672 8.21898 33.9992 7.99971 36.3357 8.0069V8.0069Z" fill="var(--color-lnui-green-100)"/></g><path d="M36.3439 8.57462C38.5526 8.56772 40.7574 8.76746 42.9312 9.1714C43.008 9.17049 43.0843 9.18521 43.1556 9.21472C43.2269 9.24422 43.2919 9.28793 43.3469 9.34334C43.4018 9.39876 43.4457 9.4648 43.4759 9.53769C43.5061 9.61059 43.5221 9.6889 43.5229 9.76817V10.7531C43.5221 10.6738 43.5061 10.5955 43.4759 10.5226C43.4457 10.4497 43.4018 10.3837 43.3469 10.3283C43.2919 10.2729 43.2269 10.2292 43.1556 10.1997C43.0843 10.1702 43.008 10.1554 42.9312 10.1563C40.7575 9.75125 38.5527 9.55037 36.3439 9.55614C34.2169 9.55114 32.0942 9.75209 30.0036 10.1563C29.9268 10.1554 29.8505 10.1702 29.7792 10.1997C29.7079 10.2292 29.6429 10.2729 29.5879 10.3283C29.533 10.3837 29.4891 10.4497 29.4589 10.5226C29.4287 10.5955 29.4127 10.6738 29.4119 10.7531V9.76988C29.4125 9.69047 29.4283 9.61197 29.4585 9.53888C29.4886 9.46579 29.5324 9.39955 29.5873 9.34395C29.6423 9.28835 29.7074 9.24449 29.7788 9.21488C29.8502 9.18527 29.9266 9.17049 30.0036 9.1714C32.0943 8.7683 34.217 8.5685 36.3439 8.57462V8.57462Z" fill="#F70000"/><path opacity="0.2" d="M39.8563 14.751V17.8392C39.8546 18.014 39.786 18.181 39.6656 18.3039C39.5452 18.4269 39.3826 18.4958 39.2132 18.4958H33.7299C33.6454 18.4967 33.5616 18.4804 33.4832 18.4479C33.4049 18.4154 33.3335 18.3673 33.2731 18.3063C33.2128 18.2454 33.1647 18.1727 33.1316 18.0926C33.0984 18.0124 33.0809 17.9263 33.0801 17.8392V14.751C33.0809 14.6639 33.0984 14.5778 33.1316 14.4976C33.1647 14.4175 33.2128 14.3448 33.2731 14.2838C33.3335 14.2229 33.4049 14.1748 33.4832 14.1422C33.5616 14.1097 33.6454 14.0935 33.7299 14.0944H39.2132C39.3826 14.0944 39.5452 14.1633 39.6656 14.2863C39.786 14.4092 39.8546 14.5762 39.8563 14.751Z" fill="#F70000"/><path d="M27.6979 9.74932C27.8256 9.89467 27.7427 10.1717 27.5189 10.37L26.6967 11.0951C26.4713 11.2934 26.1879 11.3379 26.0619 11.1925C26.0311 11.152 26.0109 11.1039 26.0033 11.053C25.9958 11.0021 26.0011 10.95 26.0188 10.9018C26.0611 10.7719 26.1381 10.6569 26.2409 10.5701L27.0697 9.84508C27.2885 9.64672 27.5736 9.60397 27.6979 9.74932Z" fill="var(--color-lnui-green-100)"/><path d="M45.3032 9.74932C45.1773 9.89467 45.2585 10.1717 45.4839 10.37L46.3044 11.0951C46.5299 11.2934 46.8133 11.3379 46.9393 11.1925C46.9698 11.1518 46.9897 11.1037 46.997 11.0528C47.0042 11.0019 46.9986 10.9499 46.9807 10.9018C46.9388 10.7721 46.8624 10.6572 46.7603 10.5701L45.9315 9.84508C45.7127 9.64672 45.4276 9.60397 45.3032 9.74932Z" fill="var(--color-lnui-green-100)"/><g filter="url(#filter2_d)"><path opacity="0.1" d="M36.3323 8.00005H36.4665L36.4665 65H27.9581L27.9581 20.1664H30.4445V19.4825H29.3687C29.213 19.4974 29.0579 19.4488 28.9364 19.3472C28.815 19.2456 28.7369 19.0989 28.719 18.9387V18.4924H30.4445V17.7879H29.3687C29.2106 17.8007 29.0538 17.749 28.9323 17.6437C28.8107 17.5385 28.7341 17.3882 28.719 17.2253V9.72369H28.1736V9.53731C28.1712 9.51629 28.1712 9.49506 28.1736 9.47404H28.7173V9.08417C28.738 8.92596 28.8172 8.78214 28.9383 8.68272C29.0594 8.58331 29.213 8.53599 29.3671 8.55066C31.6714 8.18049 34.0002 7.9964 36.3323 8.00005V8.00005Z" fill="white"/></g><path d="M29.6854 15.7906V11.7962L29.3539 11.4302V15.7906H29.6854Z" fill="#404040"/><path d="M43.1848 15.7906V11.7962L43.5163 11.4302V15.7906H43.1848Z" fill="#404040"/></g><defs><filter id="filter0_d" x="21.9581" y="19.5074" width="29.0218" height="54.39" filterUnits="userSpaceOnUse" color-interpolation-filters="sRGB"><feFlood flood-opacity="0" result="BackgroundImageFix"/><feColorMatrix in="SourceAlpha" type="matrix" values="0 0 0 0 0 0 0 0 0 0 0 0 0 0 0 0 0 0 127 0"/><feOffset dy="3"/><feGaussianBlur stdDeviation="3"/><feColorMatrix type="matrix" values="0 0 0 0 0 0 0 0 0 0 0 0 0 0 0 0 0 0 0.251 0"/><feBlend mode="normal" in2="BackgroundImageFix" result="effect1_dropShadow"/><feBlend mode="normal" in="SourceGraphic" in2="effect1_dropShadow" result="shape"/></filter><filter id="filter1_d" x="22.7207" y="5.00671" width="27.5018" height="25.8851" filterUnits="userSpaceOnUse" color-interpolation-filters="sRGB"><feFlood flood-opacity="0" result="BackgroundImageFix"/><feColorMatrix in="SourceAlpha" type="matrix" values="0 0 0 0 0 0 0 0 0 0 0 0 0 0 0 0 0 0 127 0"/><feOffset dy="3"/><feGaussianBlur stdDeviation="3"/><feColorMatrix type="matrix" values="0 0 0 0 0 0 0 0 0 0 0 0 0 0 0 0 0 0 0.251 0"/><feBlend mode="normal" in2="BackgroundImageFix" result="effect1_dropShadow"/><feBlend mode="normal" in="SourceGraphic" in2="effect1_dropShadow" result="shape"/></filter><filter id="filter2_d" x="21.9581" y="5" width="20.5084" height="69" filterUnits="userSpaceOnUse" color-interpolation-filters="sRGB"><feFlood flood-opacity="0" result="BackgroundImageFix"/><feColorMatrix in="SourceAlpha" type="matrix" values="0 0 0 0 0 0 0 0 0 0 0 0 0 0 0 0 0 0 127 0"/><feOffset dy="3"/><feGaussianBlur stdDeviation="3"/><feColorMatrix type="matrix" values="0 0 0 0 0 0 0 0 0 0 0 0 0 0 0 0 0 0 0.161 0"/><feBlend mode="normal" in2="BackgroundImageFix" result="effect1_dropShadow"/><feBlend mode="normal" in="SourceGraphic" in2="effect1_dropShadow" result="shape"/></filter><clipPath id="clip0"><rect width="72" height="72" fill="#F70000"/></clipPath></defs></svg>